<?xml version="1.0" encoding="utf-8"?>
<!-- Generator: Adobe Illustrator 16.0.0, SVG Export Plug-In . SVG Version: 6.00 Build 0)  -->
<!DOCTYPE svg PUBLIC "-//W3C//DTD SVG 1.1//EN" "http://www.w3.org/Graphics/SVG/1.1/DTD/svg11.dtd">
<svg version="1.1" id="Layer_1" xmlns="http://www.w3.org/2000/svg" xmlns:xlink="http://www.w3.org/1999/xlink" x="0px" y="0px"
	 width="218px" height="218px" viewBox="0 0 218 218" enable-background="new 0 0 218 218" xml:space="preserve">
<g transform="matrix( 1, 0, 0, 1, 0,0) ">
	<g>
		<g id="Layer0_0_FILL">
			<path d="M175.5,32.6c0-4.166-1.55-7.666-4.65-10.5c-3.133-2.867-6.783-4.117-10.949-3.75
				c-26.233,2.268-50.717,10.033-73.449,23.301c-22.034,12.967-40.434,29.967-55.2,51c-2.399,3.6-3.117,7.467-2.149,11.6
				c0.899,4.066,3.133,7.117,6.699,9.15l43.25,24.898v35.5c0,1.934,0.684,3.583,2.051,4.95c1.365,1.367,3,2.05,4.899,2.05
				c1.933,0,3.583-0.683,4.95-2.05c1.3-1.367,1.949-3.017,1.949-4.95v-4.1c0-1.934,0.701-3.583,2.101-4.95
				c1.367-1.367,3-2.05,4.899-2.05c1.935,0,3.584,0.683,4.951,2.05c1.366,1.366,2.049,3.017,2.049,4.95v26.949
				c0,1.935,0.685,3.584,2.051,4.949c1.4,1.367,3.05,2.051,4.949,2.051s3.551-0.684,4.949-2.051
				c1.367-1.365,2.051-3.016,2.051-4.949V178.85c0-1.934,0.649-3.582,1.949-4.949c1.4-1.366,3.051-2.051,4.95-2.051
				c1.9,0,3.55,0.685,4.95,2.051c1.367,1.367,2.05,3.017,2.05,4.949v5.2c0,1.9,0.685,3.534,2.05,4.9
				c1.367,1.366,3.019,2.05,4.95,2.05c1.9,0,3.534-0.684,4.9-2.05s2.05-3,2.05-4.9v-5.399l13.4,7.699
				c2.967,1.734,5.916,1.734,8.85,0c3-1.731,4.5-4.332,4.5-7.8V32.6 M118.3,80.55c2.034-3.5,5.017-5.767,8.95-6.8
				c3.967-1.066,7.7-0.583,11.2,1.45c3.532,2.032,5.815,5.05,6.85,9.05c1.067,3.934,0.55,7.667-1.55,11.2
				c-2.033,3.532-5.018,5.8-8.95,6.8c-3.966,1.033-7.7,0.533-11.2-1.5c-3.533-2.1-5.815-5.084-6.85-8.95
				C115.75,87.833,116.268,84.083,118.3,80.55 M134.35,144.5c-1.033-3.967-0.533-7.7,1.5-11.2c2.033-3.532,5.033-5.815,9-6.85
				c3.935-1.067,7.668-0.583,11.2,1.45c3.534,2.033,5.8,5.05,6.8,9.05c1.066,3.966,0.566,7.7-1.5,11.2
				c-2.033,3.533-5.033,5.815-9,6.85c-3.934,1-7.666,0.482-11.199-1.55C137.617,151.35,135.35,148.367,134.35,144.5 M76.35,83.9
				c3.934-1.033,7.633-0.533,11.101,1.5c3.532,2.1,5.833,5.117,6.899,9.05c1.066,3.966,0.566,7.683-1.5,11.149
				c-2.1,3.5-5.1,5.801-9,6.899c-3.934,1-7.666,0.483-11.199-1.55c-3.533-2.034-5.834-5.018-6.9-8.95
				c-1-3.935-0.482-7.667,1.55-11.2C69.367,87.268,72.383,84.967,76.35,83.9z"/>
		</g>
	</g>
</g>
</svg>
